<svg width="24" height="24" viewBox="0 0 24 24" fill="none" xmlns="http://www.w3.org/2000/svg">
<path d="M11.9968 5.84284C8.58954 5.84284 5.83973 8.5927 5.83973 12C5.83973 15.4073 8.58954 18.1572 11.9968 18.1572C15.404 18.1572 18.1538 15.4073 18.1538 12C18.1538 8.5927 15.404 5.84284 11.9968 5.84284ZM11.9968 16.0017C9.79333 16.0017 7.99515 14.2035 7.99515 12C7.99515 9.79651 9.79333 7.9983 11.9968 7.9983C14.2002 7.9983 15.9984 9.79651 15.9984 12C15.9984 14.2035 14.2002 16.0017 11.9968 16.0017ZM18.406 4.1557C17.6105 4.1557 16.968 4.79813 16.968 5.59367C16.968 6.38921 17.6105 7.03164 18.406 7.03164C19.2015 7.03164 19.8439 6.39221 19.8439 5.59367C19.8442 5.40477 19.8071 5.21767 19.735 5.0431C19.6628 4.86853 19.5569 4.70992 19.4233 4.57634C19.2897 4.44277 19.1311 4.33686 18.9565 4.26468C18.782 4.1925 18.5949 4.15546 18.406 4.1557ZM23.9987 12C23.9987 10.3429 24.0137 8.70077 23.9206 7.04665C23.8275 5.12536 23.3893 3.4202 21.9843 2.01525C20.5764 0.607302 18.8743 0.172008 16.953 0.0789456C15.2959 -0.0141173 13.6539 0.000892936 11.9998 0.000892936C10.3427 0.000892936 8.70061 -0.0141173 7.04652 0.0789456C5.12526 0.172008 3.42014 0.610305 2.01522 2.01525C0.607291 3.42321 0.172005 5.12536 0.0789442 7.04665C-0.014117 8.70377 0.000892919 10.3459 0.000892919 12C0.000892919 13.6541 -0.014117 15.2992 0.0789442 16.9533C0.172005 18.8746 0.610293 20.5798 2.01522 21.9847C3.42314 23.3927 5.12526 23.828 7.04652 23.9211C8.70361 24.0141 10.3457 23.9991 11.9998 23.9991C13.6569 23.9991 15.2989 24.0141 16.953 23.9211C18.8743 23.828 20.5794 23.3897 21.9843 21.9847C23.3923 20.5768 23.8275 18.8746 23.9206 16.9533C24.0167 15.2992 23.9987 13.6571 23.9987 12ZM21.3569 19.0788C21.1378 19.6252 20.8736 20.0334 20.4503 20.4537C20.0271 20.877 19.6218 21.1412 19.0754 21.3603C17.4964 21.9877 13.7469 21.8467 11.9968 21.8467C10.2466 21.8467 6.49416 21.9877 4.91512 21.3633C4.36876 21.1442 3.96049 20.88 3.54022 20.4567C3.11694 20.0334 2.85277 19.6282 2.63362 19.0818C2.00921 17.4997 2.15031 13.7502 2.15031 12C2.15031 10.2498 2.00921 6.49728 2.63362 4.91822C2.85277 4.37185 3.11694 3.96357 3.54022 3.54329C3.9635 3.123 4.36876 2.85582 4.91512 2.63667C6.49416 2.01225 10.2466 2.15335 11.9968 2.15335C13.7469 2.15335 17.4994 2.01225 19.0784 2.63667C19.6248 2.85582 20.0331 3.12 20.4533 3.54329C20.8766 3.96657 21.1408 4.37185 21.3599 4.91822C21.9843 6.49728 21.8432 10.2498 21.8432 12C21.8432 13.7502 21.9843 17.4997 21.3569 19.0788Z" fill="#442A24"/>
</svg>
