<svg width="22" height="19" viewBox="0 0 22 19" fill="none" xmlns="http://www.w3.org/2000/svg">
<path d="M0.0960002 16.496C2.05867 15.0027 3.44533 13.5947 4.256 12.272C5.10933 10.9067 5.536 9.41333 5.536 7.792C4.98133 8.13333 4.34133 8.304 3.616 8.304C2.63467 8.304 1.824 7.984 1.184 7.344C0.586667 6.66133 0.288 5.808 0.288 4.784C0.288 3.632 0.672 2.69333 1.44 1.968C2.25067 1.24266 3.31733 0.879997 4.64 0.879997C7.66933 0.879997 9.184 2.88533 9.184 6.896C9.184 8.00533 9.056 9.008 8.8 9.904C8.544 10.8 8.11733 11.696 7.52 12.592C6.96533 13.4453 6.19733 14.3413 5.216 15.28C4.23467 16.176 3.01867 17.1573 1.568 18.224L0.0960002 16.496ZM12.384 16.496C14.3467 15.0027 15.7333 13.5947 16.544 12.272C17.3973 10.9067 17.824 9.41333 17.824 7.792C17.2693 8.13333 16.6293 8.304 15.904 8.304C14.9227 8.304 14.112 7.984 13.472 7.344C12.8747 6.66133 12.576 5.808 12.576 4.784C12.576 3.632 12.96 2.69333 13.728 1.968C14.5387 1.24266 15.6053 0.879997 16.928 0.879997C19.9573 0.879997 21.472 2.88533 21.472 6.896C21.472 8.00533 21.344 9.008 21.088 9.904C20.832 10.8 20.4053 11.696 19.808 12.592C19.2533 13.4453 18.4853 14.3413 17.504 15.28C16.5227 16.176 15.3067 17.1573 13.856 18.224L12.384 16.496Z" fill="#C57642"/>
</svg>
