<svg width="17" height="20" viewBox="0 0 17 20" fill="none" xmlns="http://www.w3.org/2000/svg">
<path d="M14.1667 14.1487C13.4493 14.1487 12.8021 14.4451 12.3114 14.9223L5.58167 10.7495C5.6338 10.523 5.66667 10.2868 5.66667 10.0458C5.66667 9.8048 5.6338 9.56983 5.58167 9.3433L12.24 5.21147C12.7613 5.73368 13.4504 6.02461 14.1667 6.02482C15.7295 6.02482 17 4.67406 17 3.01241C17 1.35076 15.7295 0 14.1667 0C12.6038 0 11.3333 1.35076 11.3333 3.01241C11.3333 3.2534 11.3662 3.48958 11.4183 3.71491L4.76 7.84673C4.2384 7.32504 3.54946 7.0342 2.83333 7.03338C1.27047 7.03338 0 8.38414 0 10.0458C0 11.7074 1.27047 13.0582 2.83333 13.0582C3.54957 13.058 4.23871 12.7671 4.76 12.2449L11.4897 16.4176C11.4402 16.633 11.4147 16.8538 11.4138 17.0756C11.414 17.6541 11.5756 18.2196 11.878 18.7005C12.1805 19.1814 12.6102 19.5562 13.113 19.7775C13.6158 19.9988 14.169 20.0567 14.7026 19.9437C15.2363 19.8308 15.7265 19.5522 16.1113 19.1431C16.4961 18.734 16.7581 18.2128 16.8643 17.6454C16.9705 17.078 16.9162 16.4898 16.708 15.9553C16.4999 15.4208 16.1474 14.9638 15.695 14.6423C15.2427 14.3207 14.7108 14.1489 14.1667 14.1487Z" fill="#442A24"/>
</svg>
