<?xml version="1.0" encoding="UTF-8"?>
<svg width="24px" height="24px" viewBox="0 0 24 24" version="1.1" xmlns="http://www.w3.org/2000/svg" xmlns:xlink="http://www.w3.org/1999/xlink">
    <!-- Generator: Sketch 64 (93537) - https://sketch.com -->
    <title>icons8-expand</title>
    <desc>Created with Sketch.</desc>
    <g id="Page-1" stroke="none" stroke-width="1" fill="none" fill-rule="evenodd">
        <g id="icons8-expand" fill="#FFFFFF" fill-rule="nonzero">
            <path d="M0,0 L0,8 L2,8 L2,3.40625 L8.28125,9.71875 L9.71875,8.28125 L3.40625,2 L8,2 L8,0 L0,0 Z M16,0 L16,2 L20.59375,2 L14.28125,8.28125 L15.71875,9.71875 L22,3.40625 L22,8 L24,8 L24,0 L16,0 Z M8.28125,14.28125 L2,20.59375 L2,16 L0,16 L0,24 L8,24 L8,22 L3.40625,22 L9.71875,15.71875 L8.28125,14.28125 Z M15.71875,14.28125 L14.28125,15.71875 L20.59375,22 L16,22 L16,24 L24,24 L24,16 L22,16 L22,20.59375 L15.71875,14.28125 Z" id="Shape"></path>
        </g>
    </g>
</svg>